<?xml version="1.0" encoding="UTF-8" standalone="no"?>
<!-- Created with Inkscape (http://www.inkscape.org/) -->

<svg
   version="1.1"
   id="svg1"
   width="500mm"
   height="210mm"
   viewBox="0 0 500 210"
   sodipodi:docname="logo3.svg"
   inkscape:version="1.4.2 (f4327f4, 2025-05-13)"
   xmlns:inkscape="http://www.inkscape.org/namespaces/inkscape"
   xmlns:sodipodi="http://sodipodi.sourceforge.net/DTD/sodipodi-0.dtd"
   xmlns:xlink="http://www.w3.org/1999/xlink"
   xmlns="http://www.w3.org/2000/svg"
   xmlns:svg="http://www.w3.org/2000/svg">
  <defs
     id="defs1">
    <linearGradient
       id="linearGradient1">
      <stop
         style="stop-color:#e8a909;stop-opacity:1;"
         offset="0"
         id="stop3" />
      <stop
         style="stop-color:#0946e8;stop-opacity:0;"
         offset="1"
         id="stop4" />
    </linearGradient>
    <linearGradient
       id="linearGradient1-1">
      <stop
         style="stop-color:#660795;stop-opacity:1;"
         offset="0.11317255"
         id="stop1" />
      <stop
         style="stop-color:#085bc6;stop-opacity:1;"
         offset="0.56864566"
         id="stop5" />
      <stop
         style="stop-color:#0a6802;stop-opacity:1;"
         offset="0.79220778"
         id="stop2" />
    </linearGradient>
    <linearGradient
       inkscape:collect="always"
       xlink:href="#linearGradient1-1"
       id="linearGradient2"
       x1="201.69656"
       y1="344.91281"
       x2="710.40173"
       y2="787.12347"
       gradientUnits="userSpaceOnUse"
       gradientTransform="matrix(0.72727621,0,0,0.71697773,-85.736653,-304.39468)" />
  </defs>
  <sodipodi:namedview
     id="namedview1"
     pagecolor="#ffffff"
     bordercolor="#000000"
     borderopacity="0.25"
     inkscape:showpageshadow="2"
     inkscape:pageopacity="0.0"
     inkscape:pagecheckerboard="0"
     inkscape:deskcolor="#d1d1d1"
     inkscape:zoom="0.39508929"
     inkscape:cx="760.58757"
     inkscape:cy="426.48588"
     inkscape:window-width="1920"
     inkscape:window-height="1129"
     inkscape:window-x="-8"
     inkscape:window-y="-8"
     inkscape:window-maximized="1"
     inkscape:current-layer="g1"
     inkscape:document-units="mm" />
  <g
     inkscape:groupmode="layer"
     inkscape:label="Image"
     id="g1">
    <path
       style="fill:url(#linearGradient2);stroke-width:0.722107"
       d="m 144.08261,186.23754 c -3.34571,-1.17882 -4.04209,-6.62433 -1.09092,-8.53061 1.7837,-1.15216 1.8182,-1.34975 1.8182,-10.4127 v -9.23826 h -6.18186 -6.18183 v -25.8112 -25.81118 h -11.23808 -11.23807 l -0.21653,4.48109 -0.21652,4.48112 -25.272846,0.18851 -25.272851,0.1885 v 21.14155 21.14157 H 44.809415 30.627525 v -15.32539 c 0,-8.42898 -0.204552,-16.33367 -0.454537,-17.56595 -0.415858,-2.0498 -0.696027,-2.24057 -3.290741,-2.24057 -2.359798,0 -2.952898,0.30258 -3.530863,1.80127 -1.527973,3.96189 -7.192589,3.96189 -8.720534,0 -1.92825,-4.99988 3.720434,-8.55661 7.996636,-5.03516 0.600016,0.49409 3.608678,1.11301 6.685921,1.37534 l 5.594988,0.47702 13.157514,-5.4036 13.157533,-5.4035 h 15.28377 c 12.147743,0 15.715624,-0.22017 17.388582,-1.07303 1.543428,-0.78685 2.600701,-0.88721 3.963902,-0.37626 2.175234,0.81535 5.312844,-0.11516 5.955534,-1.76634 0.26275,-0.675 1.35704,-1.08623 2.89048,-1.08623 1.9828,0 2.46765,-0.28175 2.46765,-1.43396 0,-1.16084 -0.48485,-1.43393 -2.54546,-1.43393 -1.40002,0 -2.54549,-0.31523 -2.54549,-0.70048 0,-0.38525 -0.84582,-1.24681 -1.87961,-1.91457 -1.57738,-1.0189 -2.261643,-1.077927 -4.255634,-0.36712 -1.983705,0.70716 -2.844207,0.63855 -5.211327,-0.41558 C 90.523869,99.182814 87.102551,98.815484 77.173211,98.496912 66.344,98.149453 63.500494,97.810078 58.106934,96.221368 c -3.486396,-1.026949 -8.175341,-2.093366 -10.41984,-2.369853 -2.244492,-0.276459 -4.396893,-0.865644 -4.783093,-1.309322 -0.386208,-0.443679 -2.475994,-3.901739 -4.643957,-7.68455 -3.351902,-5.848588 -3.878893,-7.259859 -3.521587,-9.430561 0.343774,-2.08849 0.149147,-2.695732 -1.070477,-3.339173 -2.969407,-1.5667 -7.110744,1.630819 -5.141649,3.969828 0.458157,0.544245 1.660433,1.390582 2.671747,1.880822 1.893132,0.917681 9.888904,13.604284 8.83428,14.017014 -0.309313,0.120923 -2.250565,-0.623281 -4.313892,-1.654044 -2.063331,-1.030778 -4.134684,-1.743914 -4.603036,-1.584801 -0.468344,0.15906 1.439387,1.428264 4.239393,2.820308 3.656925,1.81806 7.226479,2.882869 12.672366,3.780139 4.169792,0.687044 9.872604,2.017402 12.6729,2.956352 4.492881,1.506489 6.423169,1.70906 16.418695,1.722922 9.612945,0.01375 11.794975,0.225101 14.418136,1.398921 1.699987,0.76074 3.091059,1.64092 3.091254,1.95595 3.58e-4,0.62729 -63.329468,0.39742 -63.969612,-0.23221 -0.217058,-0.21351 -0.508849,-3.260031 -0.64839,-6.770066 l -0.253721,-6.381887 -3.921368,-2.211803 c -3.624814,-2.044544 -4.111658,-2.14398 -6.437655,-1.314796 -4.843707,1.726703 -8.558417,-2.20225 -6.131843,-6.485533 2.070556,-3.654805 8.634625,-2.29811 8.634625,1.784696 0,1.19519 0.987468,2.165239 3.818197,3.750944 2.100022,1.176377 4.063667,1.995058 4.363675,1.819351 0.299989,-0.175683 0.545443,-2.075002 0.545443,-4.220588 0,-2.789826 -0.278624,-3.901077 -0.978182,-3.901077 -1.640854,0 -3.38547,-2.496223 -3.38547,-4.844002 0,-1.569613 0.586998,-2.676956 1.999994,-3.772899 l 2.000027,-1.551221 V 57.076064 45.131924 l 43.075807,-0.185024 43.075809,-0.184825 0.40657,1.61887 c 0.22361,0.890401 0.31232,5.974535 0.19712,11.298082 l -0.20945,9.679212 -22.63374,0.358486 c -12.448585,0.197196 -25.445446,0.197196 -28.881967,0 L 59.045854,67.358239 58.836752,72.365167 58.62765,77.372098 55.502275,77.1475 c -3.858238,-0.277283 -8.874678,0.506666 -8.874678,1.386913 0,0.89371 11.43794,0.833622 12.000053,-0.06298 0.253827,-0.404863 3.797961,-0.716975 8.141396,-0.716975 7.270495,0 7.784215,-0.09834 9.376937,-1.792455 3.112609,-3.310973 8.299993,-1.363977 8.299993,3.115293 0,4.285461 -6.069976,6.17225 -8.430558,2.620533 -1.149974,-1.730225 -1.466108,-1.792456 -9.107713,-1.792456 h -7.916402 v 6.811319 6.811292 h 24.995874 24.995863 l 0.45079,2.688656 c 0.24794,1.478751 0.4544,3.737265 0.4588,5.01885 l 0.008,2.33019 h 11.27278 11.27278 v -6.476961 c 0,-6.320544 -0.0553,-6.530309 -2.29194,-8.685679 -3.83058,-3.691507 -11.24908,-5.894407 -12.96918,-3.851153 -2.28753,2.717233 -7.28444,0.274854 -7.28444,-3.56047 0,-5.973366 6.76898,-7.033616 9.14306,-1.432133 0.88377,2.085193 1.45861,2.471241 4.30691,2.89233 3.23724,0.478573 7.58898,3.20762 9.57716,6.00596 0.52177,0.734345 2.36635,2.154265 4.09908,3.15533 2.62289,1.515343 3.37505,2.471719 4.49222,5.711786 1.86777,5.41707 1.41647,6.1251 -4.06954,6.38507 -2.80731,0.13322 -4.63815,0.55451 -4.82439,1.1106 -0.21655,0.64656 0.8511,0.89625 3.83232,0.89625 3.68514,0 4.36087,0.24103 6.24244,2.22677 l 2.10999,2.22674 v 23.94292 c 0,20.70941 0.14601,23.94293 1.08124,23.94293 0.93166,0 1.10771,-3.34755 1.27273,-24.19799 0.12045,-15.21569 0.45483,-24.15688 0.90091,-24.08723 0.39017,0.0609 1.63172,2.25763 2.75899,4.88152 1.83824,4.27892 1.95723,5.02247 1.15401,7.21228 -0.78259,2.13354 -0.72648,2.62565 0.44465,3.90142 1.86672,2.0335 4.4533,1.85769 5.95707,-0.40489 1.40602,-2.11543 0.82269,-3.68908 -1.86593,-5.03376 -0.88448,-0.44238 -2.60477,-2.86217 -3.82285,-5.37733 -1.76482,-3.64407 -2.24976,-5.66539 -2.3873,-9.95036 -0.15647,-4.87804 0.11522,-6.076335 2.92649,-12.905601 2.41095,-5.856629 3.55621,-7.779109 5.15775,-8.657895 2.25456,-1.237129 3.02954,-3.73799 1.66182,-5.362653 -2.48342,-2.949974 -7.38006,0.603774 -5.73535,4.162427 0.7142,1.545294 0.36074,2.879013 -2.58853,9.767268 -1.87864,4.387697 -3.71228,7.977609 -4.07477,7.977609 -0.38253,0 -0.6591,-11.582942 -0.6591,-27.603665 0,-23.961802 -0.14297,-27.603652 -1.08239,-27.603652 -0.93639,0 -1.10803,3.746481 -1.27272,27.782896 -0.18862,27.527926 -0.20253,27.756576 -1.51634,24.914976 -0.72927,-1.577333 -1.81303,-6.054531 -2.40832,-9.949293 -0.59532,-3.894763 -1.75174,-8.845125 -2.56986,-11.000785 -1.08732,-2.86493 -1.27095,-4.13286 -0.6826,-4.712889 2.00099,-1.972668 0.37793,-5.525567 -2.52423,-5.525567 -3.4158,0 -4.36204,4.724502 -1.21857,6.084135 1.12611,0.487077 2.07553,2.047389 3.05385,5.018849 1.10048,3.342494 2.94842,11.520022 2.94842,13.047457 0,0.749599 -2.22162,-0.02605 -4.55849,-1.591471 l -2.71427,-1.8183 v -6.493118 c 0,-5.407463 -0.24321,-6.797898 -1.45456,-8.316098 -0.8,-1.002632 -1.45455,-2.381225 -1.45455,-3.063548 0,-0.682321 0.65455,-2.060915 1.45455,-3.06356 1.29252,-1.619882 1.45456,-2.908622 1.45456,-11.568324 v -9.745363 h 6.18183 6.18186 v -9.038282 c 0,-8.662227 -0.0719,-9.094066 -1.72879,-10.378873 -3.11705,-2.417183 -2.85482,-5.996353 0.60305,-8.229936 1.58309,-1.022602 2.19152,-1.067757 4.06694,-0.301946 4.11857,1.681805 4.61812,4.534469 1.42246,8.122595 -2.16752,2.433715 -2.18183,2.506813 -2.18183,11.138104 v 8.688338 h 6.85995 6.85996 l 0.39439,16.66972 c 0.21692,9.168373 0.46918,17.637669 0.5606,18.820687 0.0911,1.182992 -0.0681,11.507503 -0.35483,22.943308 -0.2865,11.43579 -0.51661,28.45507 -0.51139,37.8206 l 0.01,17.0282 h -6.90895 -6.90912 v 8.90707 8.90708 l 2.18184,2.1509 c 2.64862,2.61114 2.76328,4.62111 0.39669,6.95421 -1.73324,1.70868 -3.23812,2.05482 -5.48761,1.2623 z m 4.35582,-2.71953 c 1.25648,-1.49253 0.32466,-4.47391 -1.58507,-5.07148 -1.16417,-0.36426 -1.94221,-0.0681 -2.90742,1.10714 -1.61137,1.96178 -1.63395,2.46552 -0.17493,3.9038 1.43964,1.41927 3.50115,1.446 4.6675,0.0607 z M 47.209435,150.02581 c 1.393691,-1.37394 1.052324,-4.75271 -0.581838,-5.75879 -1.357648,-0.83592 -1.454531,-1.67204 -1.454531,-12.5532 0,-7.2938 -0.27225,-11.65766 -0.727286,-11.65766 -0.454314,0 -0.727275,4.2726 -0.727275,11.38388 0,9.42195 -0.194868,11.54322 -1.130628,12.30888 -2.228598,1.8234 -2.687551,3.53055 -1.449757,5.39292 1.267104,1.90647 4.549366,2.38436 6.071315,0.88397 z m -4.996085,-1.70915 c -1.999597,-2.37526 1.722428,-5.00061 3.960904,-2.79383 0.893698,0.88106 0.9965,1.49494 0.426315,2.54524 -0.910125,1.67652 -3.081541,1.7996 -4.387219,0.24859 z M 21.536576,123.3607 c 0,-2.55838 -1.952582,-4.02379 -3.818207,-2.86555 -2.85323,1.77139 -1.436118,5.54047 1.937767,5.15383 1.538375,-0.17632 1.88044,-0.59256 1.88044,-2.28828 z M 45.900342,75.68236 V 61.506287 l 1.794222,-0.946662 c 1.575657,-0.831323 2.306592,-0.727514 6.000035,0.851985 2.985872,1.276939 5.682456,1.835294 9.296724,1.924948 4.179824,0.103792 5.294316,0.388587 6.227385,1.591726 1.727387,2.227376 5.880037,1.644915 6.801288,-0.953945 1.369574,-3.863562 -3.647824,-6.516015 -6.483194,-3.427337 -2.013016,2.192867 -10.342868,2.013635 -15.454608,-0.332512 -2.100021,-0.96387 -3.818208,-2.08995 -3.818208,-2.502441 0,-0.506452 7.61745,-0.74996 23.461528,-0.74996 22.673907,0 23.492049,0.04797 24.369925,1.433969 1.086892,1.715768 3.980781,1.875385 5.571401,0.307263 2.95377,-2.911958 -0.53915,-7.868087 -4.341504,-6.160158 -0.983627,0.441819 -1.788399,1.132855 -1.788399,1.53566 0,0.483438 -8.022376,0.732351 -23.603417,0.732351 H 50.330112 L 48.51191,53.01872 c -2.374988,-2.341336 -5.006465,-2.304593 -6.922444,0.09674 -2.008251,2.516913 -1.901997,4.956768 0.310836,7.138261 1.813731,1.788044 1.818203,1.826486 1.818203,15.62144 0,7.605938 0.209278,14.035287 0.465075,14.287496 1.366597,1.347234 1.716762,-1.606141 1.716762,-14.480254 z m -26.210919,8.200821 c 1.18204,-1.404108 0.311932,-3.792616 -1.599465,-4.390691 -2.157049,-0.674933 -4.494173,2.097381 -3.426355,4.064376 0.877218,1.615879 3.781459,1.804426 5.02582,0.326315 z m 96.638507,-1.022685 c 1.29264,-0.80776 0.8056,-3.684051 -0.7909,-4.670658 -2.5216,-1.558317 -5.35612,1.966197 -3.42557,4.259417 0.97698,1.160537 2.74193,1.332645 4.21647,0.411241 z M 81.661426,80.869729 c 1.75062,-1.561851 1.679757,-2.792427 -0.237006,-4.115985 -2.963752,-2.046496 -5.961771,1.895479 -3.378485,4.442211 1.177429,1.160749 2.035591,1.083319 3.615491,-0.326226 z M 147.76681,23.955883 c 2.72172,-1.435988 1.08766,-6.1792 -1.92598,-5.590547 -0.67144,0.131154 -1.66466,0.898693 -2.20715,1.705656 -0.8405,1.25023 -0.82037,1.700857 0.13622,3.047149 1.25648,1.76847 1.95528,1.914959 3.99696,0.837742 z M 457.14194,184.97522 c -2.45589,-2.42117 -2.3097,-4.98463 0.39669,-6.9572 l 2.18184,-1.5903 -0.0102,-7.57263 c -0.0173,-11.26719 0.28792,-10.79912 -6.98404,-10.79912 h -6.09703 v -11.95848 c 0,-7.58555 -0.32323,-12.83972 -0.88395,-14.36838 -0.69376,-1.89137 -0.69376,-2.71017 0,-3.80533 0.60724,-0.95858 0.88395,-5.37268 0.88395,-14.1015 v -12.70612 l -3.16346,3.06072 c -2.44412,2.36479 -3.08635,3.45812 -2.82452,4.80831 0.5123,2.64202 -1.61321,5.33513 -4.21065,5.33513 -4.4305,0 -6.62313,-4.92574 -3.54381,-7.96145 1.1684,-1.15188 2.0632,-1.40357 3.78383,-1.06429 2.00226,0.39477 2.68321,0.0259 6.10613,-3.30647 l 3.85248,-3.750799 v -7.015033 c 0,-3.858261 -0.1447,-7.015024 -0.32201,-7.015024 -0.17703,0 -1.48627,0.677151 -2.90915,1.504767 -2.01935,1.174567 -2.58704,1.961267 -2.58704,3.584908 0,4.52821 -5.18311,6.523163 -7.94724,3.05887 -1.91799,-2.403843 -1.90885,-4.167833 0.0317,-6.080865 1.22228,-1.204893 2.12832,-1.439256 4.40223,-1.138584 2.1735,0.287423 3.59831,-0.03282 5.91553,-1.329907 l 3.05241,-1.708526 0.36364,-18.482958 0.36365,-18.482995 6.18188,-0.358489 6.18181,-0.358487 0.085,-8.603733 c 0.0806,-8.188145 0,-8.673733 -1.62129,-10.052739 -0.93838,-0.796933 -1.91316,-2.469409 -2.16621,-3.71661 -0.37206,-1.8341 -0.10314,-2.619339 1.40641,-4.107573 2.26008,-2.228108 4.02236,-2.323171 6.56172,-0.353984 2.60253,2.018181 2.64979,5.727893 0.0981,7.706634 -1.76766,1.370716 -1.81824,1.661341 -1.81824,10.448211 v 9.038281 h 6.56835 c 4.59833,0 6.67335,0.269912 6.91863,0.899995 0.19271,0.494958 0.26423,12.328007 0.15912,26.295617 l -0.1913,25.395651 -2.70576,-4.322166 c -2.44805,-3.910562 -2.66509,-4.660242 -2.27923,-7.871966 0.36571,-3.044493 -0.0597,-4.871032 -2.98915,-12.831988 -2.67229,-7.262238 -3.24463,-9.553146 -2.62988,-10.527182 1.26844,-2.009717 0.91284,-4.072173 -1.03241,-5.989974 -1.56388,-1.541681 -1.81824,-2.439895 -1.81824,-6.420221 0,-4.149776 -0.15047,-4.627766 -1.45453,-4.627766 -1.3139,0 -1.45453,0.47799 -1.45453,4.942138 0,3.753376 -0.26506,5.042395 -1.10184,5.358959 -1.96529,0.743475 -2.6922,3.937431 -1.45333,6.385684 1.03037,2.036186 0.98014,2.549363 -0.72665,7.424394 -1.00847,2.880358 -2.68019,6.135041 -3.71504,7.232646 -2.80864,2.978968 -4.82938,5.939041 -4.05437,5.939041 0.37633,0 1.66267,-1.129243 2.85853,-2.509443 1.19584,-1.380177 2.38297,-2.509406 2.63799,-2.509406 0.25507,0 0.46371,2.726984 0.46371,6.059965 0,6.042596 -0.0102,6.073478 -3.35566,10.792372 -3.95893,5.583062 -3.82305,7.133305 0.16353,1.868744 1.51033,-1.99437 2.83573,-3.537724 2.94539,-3.429625 0.10942,0.108039 0.23654,5.560686 0.28199,12.116966 0.0733,10.558 -0.10535,12.49631 -1.56331,16.95902 -1.27225,3.89409 -1.98774,5.08669 -3.15005,5.2505 -2.21014,0.31157 -2.49404,4.35846 -0.40685,5.79969 3.38056,2.33434 6.65312,-1.01024 4.52227,-4.62184 -1.04021,-1.76302 -0.99427,-2.23461 0.6292,-6.45278 1.71353,-4.45208 1.75147,-5.03256 1.75147,-26.77706 V 72.377127 l 1.81821,-3.584896 1.81817,-3.584882 0.18705,46.424351 c 0.16353,40.60482 0.32326,46.42427 1.27276,46.42427 0.90535,0 1.08554,1.50425 1.08554,9.05926 0,8.74224 0.0638,9.11739 1.81822,10.72044 2.40952,2.20137 2.51288,6.18754 0.20185,7.78332 -2.32495,1.60539 -4.7306,1.37698 -6.78038,-0.64377 z m 6.06943,-1.25142 c 1.41195,-1.3919 1.00701,-3.32172 -0.96403,-4.59496 -1.72007,-1.11107 -1.9282,-1.10505 -3.27282,0.0946 -2.4768,2.20977 -1.39713,5.36071 1.83687,5.36071 0.84,0 1.92002,-0.38715 2.39998,-0.86031 z m -25.04075,-72.16768 c 1.35306,-1.47394 0.95461,-3.39125 -0.89942,-4.32862 -1.53657,-0.77681 -2.83809,-0.29085 -3.75767,1.40305 -0.56938,1.04884 -0.40315,1.68282 0.73559,2.80545 1.81525,1.7895 2.37333,1.8066 3.9215,0.12031 z m -0.14385,-19.931713 c 1.86133,-1.660664 1.65589,-3.71661 -0.46669,-4.670011 -1.37377,-0.617087 -2.05847,-0.592811 -2.90907,0.10312 -1.50061,1.227759 -1.40892,4.078047 0.16014,4.979037 1.67584,0.962249 1.67481,0.962369 3.21552,-0.412172 z m 24.9495,-68.341891 c 1.2169,-1.3256 1.22304,-1.530717 0.096,-3.226421 -1.29153,-1.943142 -3.24902,-2.342332 -4.66093,-0.950422 -1.20793,1.190791 -1.09098,3.123903 0.27015,4.465742 1.52266,1.501112 2.72588,1.420173 4.29482,-0.288899 z M 327.68681,184.25824 c -2.45591,-2.42111 -2.30976,-4.98462 0.3967,-6.95722 2.09516,-1.52707 2.18181,-1.80927 2.18181,-7.10163 0,-3.03126 -0.20338,-6.51393 -0.452,-7.73928 l -0.45197,-2.22788 -1.97222,2.67598 c -1.0847,1.47183 -2.51769,3.11883 -3.18439,3.66004 -0.6876,0.55821 -1.21215,2.0143 -1.21215,3.365 0,4.32506 -4.48434,5.99341 -7.66944,2.85336 -2.28523,-2.25286 -2.26258,-4.28748 0.0733,-6.59031 1.55771,-1.53566 2.27576,-1.75504 4.43665,-1.35538 1.9538,0.36135 2.93075,0.16218 4.03416,-0.8222 1.31269,-1.17113 3.48893,-4.62421 3.48893,-5.53591 0,-0.19869 -2.20909,-0.45672 -4.90911,-0.57333 l -4.90914,-0.21198 -0.19427,-17.5998 -0.19424,-17.59979 -2.46187,0.28333 c -1.79544,0.20656 -2.87488,-0.12395 -3.98765,-1.22085 -3.01504,-2.97235 -1.22106,-7.40645 3.21932,-7.95703 l 2.89128,-0.35849 0.18881,-34.235671 0.18882,-34.235696 h 12.22421 12.22426 l 18.18583,22.405557 c 10.00216,12.323051 21.55317,26.68391 25.66885,31.913036 4.11567,5.229084 7.77348,9.684424 8.12851,9.900734 0.35506,0.21635 0.64634,-1.15827 0.64738,-3.05466 v -3.44797 l 3.58213,5.37734 c 1.9702,2.95756 4.04967,5.86129 4.62118,6.45284 0.57139,0.59145 1.25344,1.95339 1.51548,3.02644 0.2621,1.07305 1.12724,2.29429 1.92247,2.71388 1.23064,0.64928 1.44602,1.50659 1.44602,5.75654 v 4.99361 h -2.07701 c -2.22512,0 -3.99435,-1.92966 -42.79316,-46.671352 -14.67083,-16.917955 -15.39622,-17.893827 -15.0164,-20.201317 0.65742,-3.993945 -3.15061,-6.389165 -5.88005,-3.698442 -2.30114,2.268569 -0.6088,6.636897 2.42346,6.255445 0.66637,-0.08371 2.81264,1.901724 5.03771,4.660401 6.04617,7.496283 29.85985,34.983135 42.21302,48.724045 l 11.18047,12.43652 3.36509,-0.21479 3.36467,-0.21483 0.21635,-5.32664 c 0.18605,-4.58181 0.46568,-5.5545 2.00003,-6.9563 1.83856,-1.67981 2.30534,-4.41628 1.1244,-6.59162 -1.21434,-2.23696 2.02469,-10.47972 5.88821,-14.984306 1.90941,-2.226281 3.28577,-4.230071 3.05861,-4.452861 -0.22711,-0.222802 -1.39833,0.804812 -2.60265,2.283599 -1.20425,1.478769 -2.48516,2.688632 -2.84635,2.688632 -0.95035,0 -0.80731,-12.388319 0.18882,-16.35222 0.46507,-1.850564 1.6105,-4.075189 2.54548,-4.9436 1.99409,-1.852185 2.11135,-2.900208 0.56777,-5.072799 -1.37309,-1.932684 -4.02774,-2.064995 -5.66423,-0.282319 -1.59267,1.734916 -1.51808,3.120208 0.28995,5.386162 1.28973,1.616399 1.38948,2.24122 0.73133,4.5778 -0.41926,1.488274 -0.76405,6.434305 -0.76631,10.991218 0,6.523907 -0.33354,9.267474 -1.55394,12.905584 -0.85244,2.54116 -1.83426,4.92684 -2.18181,5.30146 -0.35863,0.3865 -0.63192,-13.335699 -0.63192,-31.726271 0,-28.3286 -0.13741,-32.407392 -1.09095,-32.407392 -0.95181,0 -1.09821,3.908784 -1.14837,30.650803 -0.0416,22.308226 -0.26471,30.06533 -0.81897,28.49989 -0.4189,-1.18304 -1.70217,-4.36256 -2.85173,-7.065655 -2.04208,-4.801869 -2.09005,-5.213418 -2.09005,-17.931193 0,-12.240055 0.0867,-13.069995 1.45454,-13.912079 2.93729,-1.808388 1.08726,-6.619183 -2.54544,-6.619183 -3.75185,0 -5.18353,3.852094 -2.43777,6.558974 1.46384,1.443162 1.5669,2.27831 1.63637,13.263721 0.0405,6.447966 -0.0343,11.723729 -0.16778,11.723954 -0.13299,2.14e-4 -3.81485,-3.442381 -8.18191,-7.650173 l -7.93995,-7.650531 V 66.209103 c 0,-9.647372 -0.11841,-10.621142 -1.33815,-11.002766 -0.73596,-0.230296 -1.77788,-1.228689 -2.31528,-2.218712 -2.23026,-4.10829 2.26253,-8.312269 6.4302,-6.016764 2.61196,1.43863 3.16222,5.872309 0.90156,7.264113 -1.39905,0.861351 -1.49654,1.600399 -1.49654,11.345042 v 10.423678 l 4.69432,4.586705 4.69429,4.586719 -0.14877,-20.022457 -0.14877,-20.022444 5.27278,-0.210698 c 2.89997,-0.11587 5.27273,-0.368561 5.27273,-0.561557 0,-0.728445 -3.87095,-7.843823 -5.31411,-9.768188 -1.18343,-1.57797 -2.08844,-2.006701 -4.23605,-2.006701 -4.76888,0 -6.73415,-5.000405 -3.07911,-7.834718 2.50095,-1.939396 3.57422,-1.87427 5.83445,0.353969 1.42034,1.400241 1.76961,2.316979 1.46146,3.835911 -0.31728,1.563832 0.20375,2.794475 2.40658,5.684707 1.54636,2.028836 3.2466,4.900305 3.77828,6.381032 l 0.96667,2.692249 0.36364,-5.679229 c 0.23276,-3.634596 0.69094,-5.785659 1.27275,-5.97483 0.67961,-0.220942 0.91792,1.303159 0.94409,6.037747 l 0.0348,6.333302 2.22666,-4.301873 c 1.22466,-2.366024 2.92142,-5.047897 3.77068,-5.959691 0.998,-1.071492 1.46658,-2.386862 1.32479,-3.71912 -0.29561,-2.777998 0.89605,-4.755119 3.2113,-5.327972 4.12343,-1.020252 7.4341,3.608218 5.09653,7.12525 -0.92146,1.386342 -1.80827,1.787207 -3.95347,1.787207 -3.31783,0 -5.15933,1.680247 -7.33379,6.691497 -0.82696,1.905803 -1.50353,3.599659 -1.50353,3.764142 0,0.164373 2.29094,0.299035 5.09095,0.299035 h 5.0909 v 20.433887 20.43387 h 1.85126 c 2.79957,0 5.68263,3.178585 5.06908,5.588646 -0.73487,2.886432 -1.74634,3.73205 -4.46386,3.73205 h -2.45648 v 31.547019 31.54703 l -12.18187,-0.0299 -12.18183,-0.0301 -7.76775,-9.82843 c -11.57546,-14.6463 -29.71849,-37.36682 -37.61976,-47.11119 l -6.97638,-8.603742 -0.36364,5.018842 -0.36367,5.01883 -3.07212,-4.414476 c -1.68969,-2.428003 -3.89878,-5.055566 -4.90912,-5.839035 -1.01033,-0.783483 -1.83695,-1.942705 -1.83695,-2.576019 0,-0.633342 -0.65456,-1.796813 -1.4546,-2.585479 -1.13129,-1.115291 -1.45453,-2.389931 -1.45453,-5.735827 0,-4.278897 0.0119,-4.30186 2.13064,-4.30186 1.80459,0 3.1654,1.179552 8.89195,7.707512 3.71873,4.239126 13.10668,14.904972 20.86215,23.701854 27.71698,31.43899 28.49394,32.41676 28.03022,35.27538 -0.32386,1.99668 -0.0816,2.8152 1.1605,3.9235 1.43944,1.28427 1.7315,1.31122 3.52002,0.3248 1.07264,-0.59158 2.05842,-1.8174 2.19056,-2.72399 0.27677,-1.89877 -1.71404,-4.39803 -3.50329,-4.39803 -0.68063,0 -4.87635,-4.35594 -9.49587,-9.85846 -4.55204,-5.4222 -17.42858,-20.26361 -28.61457,-32.981023 -18.88767,-21.473604 -20.50614,-23.122535 -22.69565,-23.122535 -4.34349,0 -4.65846,0.394513 -4.65846,5.835037 0,4.070896 -0.22914,5.049384 -1.27275,5.435433 -3.01831,1.116525 -4.01606,5.032801 -2.00382,7.865004 0.97625,1.374021 0.93717,2.008846 -0.38335,6.223554 -0.80879,2.58141 -1.78077,4.88251 -2.15996,5.11353 -1.30919,0.79766 -7.42341,9.05007 -7.00836,9.45924 0.2289,0.22566 1.88681,-1.16527 3.68424,-3.091 l 3.26802,-3.50135 0.0187,7.16981 c 0.0197,8.11644 -1.09173,12.76239 -3.44301,14.38594 -2.60587,1.79941 -2.06491,5.0297 1.11923,6.6828 4.36272,2.26499 7.69962,-4.5593 3.39157,-6.93608 -1.09568,-0.60451 -1.14538,-1.08474 -0.41005,-3.96358 0.46023,-1.80169 0.83671,-6.71252 0.83671,-10.91301 0,-7.36766 1.85169,-16.559006 3.74586,-18.593506 0.38003,-0.408162 0.62901,11.893606 0.60205,29.744466 -0.0312,20.51998 0.20121,30.52162 0.71223,30.68958 0.87763,0.28841 1.09349,-10.54077 0.7907,-39.66267 -0.11094,-10.64712 -0.0275,-19.197053 0.18518,-18.999915 0.21251,0.197215 1.24829,2.616995 2.30183,5.377355 1.05348,2.76036 2.55398,6.08587 3.33432,7.39001 1.28956,2.15499 1.41891,3.78973 1.41891,17.93121 0,14.78357 -0.0726,15.60474 -1.45457,16.45559 -1.9266,1.1862 -1.89999,4.56557 0.0495,6.30505 1.37278,1.2248 1.67464,1.24818 3.45452,0.26774 2.48944,-1.37126 2.91209,-4.21657 0.89381,-6.01722 -1.40749,-1.25571 -1.48893,-2.12651 -1.48893,-15.91534 0,-8.02281 0.28227,-14.58689 0.62724,-14.58689 0.34499,0 3.74277,3.10651 7.55065,6.90333 l 6.92339,6.90341 0.51066,5.77094 c 0.4585,5.182 0.73501,5.97764 2.70963,7.79612 1.78972,1.64809 2.10937,2.39201 1.7172,3.99541 -1.22834,5.0217 -7.90249,5.11892 -9.50592,0.1385 -0.49144,-1.52643 1.29414,-4.97952 2.57492,-4.97952 0.79528,0 0.88975,-9.00427 0.11383,-10.86463 -0.55895,-1.34038 -7.4726,-9.21048 -8.09183,-9.21124 -0.22139,-2.7e-4 -0.30998,8.21379 -0.19688,18.25355 l 0.20564,18.25405 -5.89327,0.20852 -5.89322,0.20853 3.00544,5.91504 c 2.87086,5.65009 3.11516,5.91506 5.45305,5.91506 1.77778,0 2.85995,0.51692 3.95481,1.88913 1.97952,2.48088 1.90306,4.23875 -0.27777,6.38875 -2.28822,2.25582 -4.34945,2.23011 -6.6963,-0.0834 -1.5656,-1.54344 -1.79923,-2.27841 -1.43611,-4.5173 0.35922,-2.21473 -0.0601,-3.59118 -2.44167,-8.0151 l -2.87536,-5.34115 -0.0192,7.67491 c -0.0187,7.243 0.0833,7.77581 1.79909,9.46735 2.29703,2.26453 2.30733,4.3085 0.0333,6.55059 -0.98182,0.96794 -2.4694,1.75983 -3.30575,1.75983 -0.83642,0 -2.324,-0.79189 -3.30582,-1.75983 z m 5.34217,-1.25141 c 1.47148,-1.45065 1.04372,-4.14206 -0.76363,-4.80438 -2.2002,-0.80624 -3.37875,-0.26019 -3.90568,1.80974 -0.76756,3.0147 2.51406,5.11936 4.66931,2.99464 z m 11.74863,-5.91148 c 0.4797,-0.56979 0.76522,-1.77971 0.63453,-2.68865 -0.19646,-1.36617 -0.67891,-1.65267 -2.78311,-1.65267 -2.10417,0 -2.58669,0.2865 -2.78315,1.65267 -0.28447,1.97849 1.02028,3.72464 2.78315,3.72464 0.70201,0 1.6689,-0.46619 2.14858,-1.03599 z m -23.68121,-6.31297 c 1.16984,-1.83986 -0.31806,-3.76418 -2.9104,-3.76418 -1.64174,0 -2.15463,0.36223 -2.34023,1.65266 -0.48781,3.39232 3.43347,4.96921 5.25063,2.11152 z m 90.29327,-20.93906 c 3.42584,-3.37732 1.49264,-7.53837 -3.52888,-7.59562 l -3.04964,-0.0348 -15.27283,-17.67238 C 373.8735,106.41445 353.97861,83.816812 342.16556,70.732096 c -5.7466,-6.365167 -6.65383,-7.717158 -6.5932,-9.825274 0.13316,-4.644588 -4.37173,-7.017763 -7.48885,-3.944793 -2.99906,2.95659 -0.62562,8.209471 3.50082,7.747948 1.7081,-0.191112 3.10524,1.042444 10.71478,9.459515 4.81276,5.323561 12.55114,14.034848 17.19633,19.358408 9.41641,10.79143 26.37504,30.11667 36.4923,41.58472 3.65285,4.14055 6.88699,7.6358 7.18703,7.76725 0.29998,0.1316 0.54548,1.47927 0.54548,2.99512 0,2.12351 0.43982,3.09721 1.91627,4.24211 2.48274,1.9253 3.57519,1.87328 5.75315,-0.27384 z m -53.63329,-1.96842 c 2.46857,-2.43364 -0.43449,-6.48808 -3.49096,-4.87547 -1.80562,0.95272 -1.9161,3.96562 -0.18177,4.96143 1.69283,0.97203 2.62157,0.95028 3.67273,-0.0859 z m -41.33827,-28.14285 c 1.05504,-1.25322 0.40485,-3.68217 -1.14233,-4.26745 -2.53681,-0.95968 -5.32734,2.96481 -3.43478,4.83056 0.8643,0.85202 3.67715,0.50601 4.57711,-0.56311 z M 426.95982,92.491977 c 1.16367,-1.382249 0.7023,-4.006145 -0.87586,-4.981431 -1.75566,-1.084951 -3.7524,0.241329 -4.04886,2.689395 -0.17439,1.439945 0.18055,2.067227 1.45455,2.570902 2.31074,0.913548 2.47768,0.900127 3.47017,-0.278866 z m -41.08963,-39.36169 c 1.57627,-1.136232 1.10389,-4.350494 -0.7419,-5.048748 -3.08682,-1.16775 -5.52853,3.603129 -2.68087,5.238252 1.66543,0.956296 1.84726,0.946223 3.42277,-0.189597 z m 37.76853,-22.158623 c 1.71152,-2.679348 -2.52063,-5.543188 -4.41577,-2.988085 -1.23387,1.663481 -1.20608,2.10252 0.22202,3.510416 1.41749,1.397439 3.10134,1.187723 4.19375,-0.522331 z m -26.49717,-0.856769 c 0.47966,-0.569797 0.76523,-1.779698 0.63447,-2.688661 -0.18783,-1.306255 -0.69498,-1.652677 -2.41942,-1.652677 -1.72452,0 -2.23167,0.346422 -2.4195,1.652677 -0.26037,1.810805 0.98279,3.724662 2.4195,3.724662 0.50201,0 1.30526,-0.466203 1.78495,-1.036001 z M 182.6283,99.959301 V 41.772993 l 33.6365,0.328897 c 36.70952,0.358965 37.66515,0.452674 49.15172,4.819619 18.33714,6.971413 31.73284,22.975528 35.07702,41.907251 1.40717,7.966276 0.53652,21.71806 -1.84087,29.07646 -2.14809,6.64852 -5.83649,13.838 -9.3355,18.19686 -6.88627,8.57855 -20.23633,16.75473 -32.5067,19.90867 -5.86727,1.50806 -7.91214,1.60282 -40.18203,1.86188 l -34.00014,0.27296 z m 45.25842,42.777559 c -6.92976,-7.41142 -9.74978,-14.09017 -9.71296,-23.00318 l 0.0238,-5.77184 -3.62097,-4.48112 c -1.99154,-2.46461 -3.89033,-4.48111 -4.21958,-4.48111 -0.85483,0 -2.89845,6.59084 -3.76088,12.12909 -1.35427,8.69704 0.47949,13.32894 7.68753,19.41794 3.44816,2.91277 14.30975,9.27404 15.89193,9.3073 0.35093,0.004 -0.67906,-1.39532 -2.28897,-3.11708 z m 21.10761,0.0833 c 6.60197,-3.46192 14.52033,-10.22725 16.47412,-14.0753 1.81226,-3.5694 2.33416,-8.40269 1.47514,-13.66121 -0.78685,-4.81668 -2.6694,-10.08411 -3.60401,-10.08411 -0.32213,0 -2.2851,2.10551 -4.36225,4.67887 l -3.7765,4.67884 -0.10415,6.29431 c -0.095,5.73224 -0.34992,6.78413 -2.85498,11.77916 -1.51294,3.01664 -4.4094,7.27394 -6.43665,9.46067 -2.02724,2.18676 -3.44647,3.97589 -3.15381,3.97589 0.29268,0 3.14712,-1.37121 6.3432,-3.04712 z m -7.08202,-18.53063 c 4.93773,-2.74721 5.15594,-4.25662 0.89809,-6.21189 -5.19514,-2.38562 -5.97597,-2.44565 -10.45987,-0.8044 -4.59519,1.68202 -5.57679,2.52547 -4.71199,4.04893 0.739,1.30184 7.38559,5.10515 9.00102,5.15062 0.70606,0.0195 3.07879,-0.96261 5.27275,-2.18326 z m -38.91685,-13.62914 c 0.46403,-1.73322 1.67088,-4.98737 2.68189,-7.23143 l 1.83824,-4.080091 -3.67386,-5.140745 -3.67389,-5.14074 -2.72099,4.193386 c -1.49655,2.306376 -3.51239,6.436755 -4.47964,9.1786 -1.55343,4.40365 -1.65715,5.32474 -0.88923,7.89538 0.91124,3.05051 3.92755,8.34187 7.17639,12.58933 l 1.91946,2.50944 0.48894,-5.81091 c 0.26897,-3.196 0.86865,-7.229 1.33269,-8.96222 z m 76.17232,3.93562 c 3.40862,-6.58891 3.42214,-6.64345 2.50413,-10.08225 -1.1253,-4.21512 -6.63831,-15.427708 -7.44309,-15.138051 -1.45827,0.524856 -7.94777,10.317724 -7.50096,11.319131 2.80961,6.29663 4.81428,13.33875 5.16203,18.13363 l 0.40497,5.58356 1.72287,-1.59566 c 0.94756,-0.87758 3.26509,-4.57675 5.15005,-8.22036 z m -26.72298,-5.08364 c 5.2e-4,-0.47557 -1.02523,-2.57274 -2.28071,-4.66036 -1.25545,-2.08763 -3.20394,-5.808873 -4.32988,-8.269404 l -2.0472,-4.473706 1.59755,-0.842857 c 2.03835,-1.075464 10.1719,-3.515079 10.53279,-3.159274 0.53878,0.531165 -2.0585,4.676238 -3.36056,5.363237 -0.73119,0.385756 -2.0632,0.512246 -2.96003,0.281032 -1.53102,-0.394685 -1.45056,-0.0675 1.31744,5.359952 1.62144,3.17914 3.27606,5.98011 3.67695,6.22437 0.79596,0.48497 10.16232,-11.568508 10.19757,-13.123145 0.0136,-0.526557 -1.86011,-3.056705 -4.16012,-5.622598 -2.30002,-2.565879 -5.22383,-5.845428 -6.49734,-7.287883 l -2.3155,-2.622648 -5.68453,2.079904 c -7.72841,2.827751 -10.03606,3.008336 -14.41184,1.127782 -1.99999,-0.859533 -4.84275,-1.991937 -6.31716,-2.516502 l -2.68079,-0.953731 -5.80987,5.867127 c -3.19546,3.226859 -6.49449,6.731295 -7.33122,7.787544 l -1.5213,1.920527 3.23618,4.532275 c 1.77994,2.49279 4.24896,5.661568 5.48673,7.041718 2.52428,2.81463 2.06205,3.09108 6.10707,-3.652404 3.62603,-6.044941 3.66784,-6.297549 1.03081,-6.223652 -2.34678,0.06563 -5.65508,-2.755915 -5.65508,-4.823288 0,-0.836198 0.61543,-0.817196 3.81823,0.117858 4.20999,1.229101 7.8182,2.893631 7.8182,3.606728 0,0.253006 -1.97116,4.128171 -4.38035,8.611468 l -4.38035,8.15142 2.23347,3.20027 c 2.51152,3.59867 3.48991,3.81812 8.18198,1.83537 4.51664,-1.90865 4.84789,-3.76113 1.1907,-6.65855 -4.49796,-3.56348 -3.91087,-4.16522 4.06366,-4.16522 6.42428,0 6.90912,0.10066 6.90912,1.43398 0,0.78864 -0.2543,1.43397 -0.56517,1.43397 -0.31086,0 -1.63757,0.96556 -2.94818,2.14567 -3.00958,2.70992 -2.45729,3.89858 2.87061,6.17861 l 3.91548,1.67563 2.72535,-3.02831 c 1.49891,-1.66554 2.7262,-3.41735 2.72729,-3.89289 z M 207.3952,85.952734 c 0.78283,-0.929878 0.73574,-1.471705 -0.27458,-3.157787 -1.5938,-2.659934 -1.53876,-4.00875 0.23504,-5.757406 1.57708,-1.554795 6.41465,-1.993094 7.72628,-0.700048 0.50777,0.500579 1.1729,0.26724 2.09194,-0.733918 1.76915,-1.927223 0.94205,-2.657436 -4.15244,-3.666046 -3.58335,-0.709468 -4.43824,-0.643387 -6.87884,0.531725 -1.66948,0.803855 -3.35004,2.378596 -4.19123,3.927465 -1.23699,2.277486 -1.28998,2.857661 -0.44494,4.868933 1.09949,2.616759 3.49476,5.809574 4.35842,5.809574 0.32196,0 1.01065,-0.50511 1.53035,-1.122492 z m 63.4346,-1.888926 c 2.75206,-4.184233 2.68748,-7.746473 -0.18371,-10.128191 -2.62541,-2.177905 -5.65201,-2.911678 -9.42072,-2.283959 -3.65887,0.60941 -5.51874,1.950412 -4.90215,3.534483 0.38786,0.996466 1.05176,1.139182 3.57272,0.768082 6.0515,-0.890825 9.80354,2.351408 7.59453,6.562668 -0.76151,1.45172 -0.88358,2.470923 -0.39831,3.325765 1.02475,1.805198 1.54237,1.558835 3.73764,-1.778848 z m -73.52358,-6.667846 c -0.1274,-1.183018 -0.53625,-2.457461 -0.90911,-2.832067 -0.37283,-0.374635 -0.67788,-2.749669 -0.67788,-5.277875 v -4.596752 l 2.72727,0.572057 c 4.33648,0.909601 5.95039,0.647145 13.09588,-2.129802 6.16898,-2.397438 6.89918,-2.533417 8.72734,-1.625076 3.05011,1.515409 15.14644,5.495044 16.65716,5.480094 0.73589,-0.0066 5.34539,-1.429993 10.24337,-3.161561 l 8.90534,-3.148301 5.98067,2.486601 c 3.28937,1.367632 6.33116,2.773416 6.75962,3.123945 0.7515,0.614857 10.22087,-1.741136 11.48294,-2.856983 0.62306,-0.550874 0.23454,-0.703636 -17.30656,-6.80409 -6.40003,-2.225795 -14.90915,-5.196911 -18.90917,-6.602441 l -7.27279,-2.555526 -19.63642,6.809827 c -10.80004,3.745379 -20.89389,7.206894 -22.4307,7.692244 -1.77322,0.559977 -2.5407,1.132393 -2.10035,1.566503 0.82458,0.812931 0.278,10.691357 -0.64585,11.672423 -0.35278,0.374608 -0.6414,1.603059 -0.6414,2.729882 0,1.966915 0.12349,2.039959 3.0909,1.828293 2.9601,-0.211123 3.08113,-0.311515 2.85974,-2.371395 z m 47.23777,-3.840946 c 3.7465,-1.521003 9.19205,-3.649183 12.10122,-4.729285 l 5.28937,-1.96382 -2.69512,-1.354609 -2.69514,-1.354596 -9.96877,3.298709 -9.96876,3.298683 -9.13264,-3.334535 c -8.96263,-3.272517 -9.18274,-3.313896 -11.82812,-2.22424 -1.48254,0.610657 -2.48916,1.313721 -2.237,1.56237 0.43396,0.427785 5.80484,2.739103 11.40123,4.906445 1.40001,0.542182 4.50913,1.804906 6.90913,2.806061 2.4,1.001131 4.73469,1.827922 5.18817,1.837265 0.45351,0.0079 3.88988,-1.227428 7.63643,-2.748448 z M 461.9023,110.95051 c 0,-25.908002 0.27005,-46.798921 0.60001,-46.424313 0.33007,0.37462 2.01611,4.471495 3.74683,9.104177 l 3.14672,8.423026 -0.83936,5.916532 c -0.46165,3.254075 -1.14338,9.085083 -1.51492,12.957768 -0.67059,6.98933 -0.657,7.09186 1.84273,13.89969 2.27812,6.2042 2.41208,6.97416 1.40454,8.07175 -1.50144,1.63563 -1.4015,3.13085 0.31148,4.65911 1.98379,1.7699 4.94673,0.95737 5.58,-1.53019 0.39028,-1.53282 0.0667,-2.24683 -1.70082,-3.7532 -1.5479,-1.31917 -2.8425,-3.73711 -4.45093,-8.31302 -2.24606,-6.38983 -2.26093,-6.52632 -1.52365,-13.981049 0.40953,-4.14058 0.82285,-7.809299 0.91851,-8.152785 0.0957,-0.343473 1.30617,0.856463 2.69003,2.666525 1.38392,1.810038 2.89431,3.300921 3.35641,3.313141 0.46214,0.01364 2.5573,2.305458 4.65584,5.096168 3.01916,4.01502 4.12061,4.99537 5.27731,4.69716 1.52434,-0.39297 4.11413,0.62934 5.03374,1.98704 1.16413,1.71883 0.56916,5.35928 -1.05978,6.48408 -3.73158,2.57668 -8.17301,-0.22353 -7.72084,-4.86787 0.19761,-2.03006 -0.32851,-3.31537 -2.66286,-6.50565 l -2.90908,-3.97577 -0.20199,10.05484 c -0.16268,8.09531 0.0153,10.35957 0.90904,11.61862 1.40097,1.97178 1.41689,4.15701 0.0431,5.94729 -0.85311,1.11203 -1.07242,4.23786 -1.09091,15.55205 l -0.0229,14.16034 h -6.90912 -6.9091 z m 27.19484,2.47358 c 1.16993,-1.83978 -0.31799,-3.76412 -2.91038,-3.76412 -1.77844,0 -2.13954,0.31956 -2.34261,2.07313 -0.37952,3.27764 3.45851,4.51314 5.25299,1.69099 z m -112.84875,43.16934 c -2.16186,-0.85597 -3.0662,-3.36387 -2.14858,-5.95876 0.81434,-2.30295 -0.60712,-4.54111 -19.03056,-29.96588 l -9.16753,-12.65145 -0.21651,4.22697 c -0.11892,2.32481 -0.50034,4.22693 -0.84728,4.22693 -1.60763,0 -6.54256,-6.8906 -8.58614,-11.98897 -2.83059,-7.061711 -3.13974,-9.426648 -1.37236,-10.498976 1.47781,-0.896578 1.0883,-1.278891 10.12807,9.940836 4.22558,5.24459 28.07119,37.97863 30.42354,41.76396 0.57209,0.92052 1.72236,1.61324 2.67888,1.61324 2.21196,0 5.24658,3.06122 5.24658,5.29267 0,1.06144 -0.76913,2.3694 -1.91628,3.25899 -2.09829,1.62712 -2.72616,1.71667 -5.19183,0.74044 z m 4.07541,-2.03188 c 0.54942,-0.3434 0.86363,-1.50017 0.72727,-2.67766 -0.18764,-1.61993 -0.65119,-2.1203 -2.12055,-2.28866 -2.63232,-0.30166 -4.03854,1.50818 -2.96931,3.82162 0.82745,1.79034 2.58959,2.25274 4.36259,1.1447 z m -42.40264,-4.83405 c -0.64638,-0.63731 -1.05939,-1.5015 -0.91773,-1.92048 0.42722,-1.26349 2.44224,-2.19682 3.70853,-1.71779 1.52245,0.57593 1.55144,3.78973 0.039,4.36176 -1.5422,0.5834 -1.49124,0.59644 -2.83013,-0.72349 z M 30.337539,117.90522 c -0.231689,-1.38017 -0.424881,-4.52593 -0.429274,-6.99054 l -0.0078,-4.48109 h -9.189363 c -8.867807,0 -9.248342,0.063 -10.8744105,1.79243 -4.5864556,4.87877 -11.7808685,-1.1826 -7.8951163,-6.65176 1.6186775,-2.278273 5.6621136,-2.176366 7.8951163,0.19897 1.6325985,1.73662 1.9823665,1.79242 11.2380415,1.79242 9.200736,0 9.553008,0.0553 9.553008,1.49622 v 1.49627 l 32.36383,-0.51971 c 28.886237,-0.46389 32.363788,-0.40104 32.363788,0.58454 0,2.09096 -4.278531,2.67849 -19.505379,2.67849 H 60.92529 l -9.599896,3.94257 c -5.279948,2.16843 -11.196878,4.65528 -13.148753,5.52632 -1.951866,0.8711 -4.419303,1.59741 -5.483192,1.61401 -1.653885,0.0258 -1.995446,-0.33361 -2.355664,-2.47918 z M 8.7467325,106.25431 c 0.3399506,-0.88747 0.3384763,-2.13971 -0.0019,-2.78353 -1.5812082,-2.97877 -5.7527852,-1.93846 -5.7527852,1.43456 0,2.52006 0.4557906,2.96218 3.053746,2.96218 1.493319,0 2.2591983,-0.45726 2.7019499,-1.61321 z m 391.4270975,2.10321 c -2.03672,-2.9755 -4.03106,-5.60985 -4.43192,-5.85411 -0.40089,-0.2442 -7.44958,-10.236257 -15.66382,-22.20454 -12.32782,-17.962008 -15.17881,-21.69759 -16.33271,-21.40012 -1.7504,0.451264 -5.11627,-2.709566 -5.11627,-4.804566 0,-1.883585 3.10927,-5.018849 4.97727,-5.018849 3.42947,0 5.56412,3.798119 4.2538,7.568531 -0.39168,1.127088 0.87638,3.490736 5.38494,10.037698 3.24348,4.7099 9.37046,13.725699 13.61552,20.035108 7.85284,11.671691 8.60159,12.234673 7.99997,6.015356 -0.14844,-1.533934 -0.0797,-2.788949 0.15233,-2.788949 0.85223,0 4.94584,4.733539 6.20052,7.169787 0.71077,1.380175 2.21845,5.083224 3.35042,8.228964 2.01716,5.6056 2.03078,5.74655 0.68565,7.07263 -1.3451,1.32611 -1.44635,1.24525 -5.07555,-4.05694 z M 366.18747,55.348907 c 1.16991,-1.839813 -0.31801,-3.764128 -2.91038,-3.764128 -1.64168,0 -2.15465,0.362209 -2.34018,1.652651 -0.48781,3.392309 3.43342,4.969205 5.25056,2.111477 z M 31.354802,75.245033 c 0,-1.771778 0.985441,-2.40383 1.777622,-1.140164 0.525671,0.838456 -0.279947,2.932619 -1.128155,2.932619 -0.3572,0 -0.649467,-0.806604 -0.649467,-1.792455 z M 399.96392,66.472316 c -1.62377,-0.363631 -2.28948,-2.281727 -1.22902,-3.541378 1.23294,-1.46453 3.85145,-0.888009 4.1113,0.905204 0.2528,1.743832 -1.14762,3.024627 -2.88228,2.636174 z"
       id="path1" />
  </g>
</svg>
