<?xml version="1.0" encoding="UTF-8" standalone="no"?>
<!-- Created with Inkscape (http://www.inkscape.org/) -->

<svg
   version="1.1"
   id="svg1"
   viewBox="0 0 210 297"
   sodipodi:docname="logo4.svg"
   inkscape:version="1.4.2 (f4327f4, 2025-05-13)"
   xmlns:inkscape="http://www.inkscape.org/namespaces/inkscape"
   xmlns:sodipodi="http://sodipodi.sourceforge.net/DTD/sodipodi-0.dtd"
   xmlns="http://www.w3.org/2000/svg"
   xmlns:svg="http://www.w3.org/2000/svg">
  <defs
     id="defs1" />
  <sodipodi:namedview
     id="namedview1"
     pagecolor="#ffffff"
     bordercolor="#000000"
     borderopacity="0.25"
     inkscape:showpageshadow="2"
     inkscape:pageopacity="0.0"
     inkscape:pagecheckerboard="0"
     inkscape:deskcolor="#d1d1d1"
     inkscape:zoom="0.66081257"
     inkscape:cx="401.02143"
     inkscape:cy="580.3461"
     inkscape:window-width="1920"
     inkscape:window-height="1129"
     inkscape:window-x="-8"
     inkscape:window-y="-8"
     inkscape:window-maximized="1"
     inkscape:current-layer="g1"
     inkscape:document-units="mm" />
  <g
     inkscape:groupmode="layer"
     inkscape:label="Image"
     id="g1">
    <path
       style="fill:#f5c22b;fill-opacity:1;stroke-width:0.490955"
       d="m 90.592667,269.16152 c -0.387011,-0.38591 -1.530782,-0.69936 -2.551856,-0.69936 h -1.850414 l -0.794058,1.57256 C 64.024131,300.13163 28.530173,218.73691 20.59481,205.11594 c 0.181444,-0.93912 0.823228,-2.07689 1.426142,-2.52839 l 1.0962,-0.82091 0.783805,0.85721 c 0.938368,1.02625 0.995271,1.38385 0.278402,1.75042 -0.2967,0.15185 -0.539702,0.56732 -0.539702,0.92332 v 0.64739 l 1.149935,-0.56209 1.149932,-0.56202 0.264073,0.60721 c 1.991608,4.58014 7.82242,6.64931 9.352604,3.31894 l 0.470116,-1.02321 h 1.859482 1.859452 l 0.345643,1.45147 c 1.522741,6.39487 2.139866,8.09562 3.380242,9.31542 2.717291,2.67221 21.968178,14.88645 32.614634,20.69316 3.488611,1.90274 4.831332,1.85253 6.132364,-0.22933 0.449612,-0.71951 1.034263,-1.30819 1.299181,-1.30819 0.264995,0 0.831229,-0.11092 1.258376,-0.24661 0.518263,-0.16438 2.402751,1.43278 5.664064,4.80098 2.6881,2.77622 5.600446,5.74098 6.471895,6.58843 l 1.584457,1.5408 -2.309758,2.34656 c -1.270398,1.2906 -2.966027,3.27324 -3.768118,4.40576 l -1.458365,2.05923 1.789007,1.52738 c 0.983989,0.84008 1.878322,1.4535 1.987442,1.3632 0.109174,-0.0903 1.190198,0.0196 2.402293,0.24555 l 2.203886,0.40979 1.016156,-0.76099 c 0.59065,-0.44231 2.1991,-0.83519 3.84126,-0.93828 l 2.82511,-0.17742 2.03451,0.87905 2.03451,0.87903 2.2832,-0.24537 c 1.39485,-0.14994 2.94527,-0.72098 3.98491,-1.46779 0.93595,-0.67234 2.02892,-1.31911 2.42872,-1.43725 l 0.72694,-0.21494 -1.3493,-2.18021 c -0.7421,-1.19915 -2.38145,-3.23307 -3.64303,-4.51986 -2.78539,-2.84108 -2.88447,-2.13104 0.80958,-5.80092 1.70683,-1.6957 4.42679,-4.52833 6.04434,-6.29483 l 2.94098,-3.21177 1.10685,0.27027 c 0.60876,0.14871 1.41502,0.60164 1.79172,1.0067 1.69185,1.8193 2.32234,2.29957 3.01857,2.29957 2.30644,0 32.55783,-18.38735 36.8293,-22.3855 1.16587,-1.09127 1.89015,-3.00927 2.97273,-7.87203 l 0.62143,-2.79128 h 1.28338 1.28344 l 0.85569,1.7696 c 0.85728,1.77299 2.10691,2.49072 3.51218,2.01717 0.80078,-0.26985 5.62438,-5.16702 5.99456,-6.08602 l 0.22081,-0.54823 1.30062,0.75385 c 0.71533,0.4146 1.48945,0.75383 1.72026,0.75383 0.85807,0 0.38097,-1.31154 -0.70635,-1.9418 l -1.12599,-0.65258 0.60526,-0.93583 c 0.77028,-1.19103 1.33127,-1.17863 2.72596,0.06 1.10749,0.98366 1.44271,1.73826 1.73801,3.91248 l 0.15121,1.11228 4.58756,2.53802 c 10.62982,5.88086 11.27353,7.98841 5.29767,17.34438 -8.43392,13.20423 -60.73352,65.9725 -76.35826,40.42727 l -2.11454,0.1371 c -1.16303,0.0755 -2.35746,0.38403 -2.65432,0.68571 -1.24964,1.26985 -28.260342,1.21247 -29.385463,0.0906 z M 102.49089,249.89046 C 86.154236,235.09911 77.707461,222.31803 75.952113,209.73355 75.285804,204.95669 75.475865,194.0886 76.20185,195.4422 c 0.263465,0.49126 1.191469,2.15743 2.061989,3.70265 l 1.582793,2.80948 3.065288,2.01512 c 3.113813,2.04701 19.33362,11.22059 21.54661,12.1863 l 1.21062,0.52827 6.0755,-3.19124 c 14.93136,-7.84303 20.11863,-11.4999 22.04814,-15.54319 1.80051,-3.77298 2.10817,-3.71183 2.10207,0.41785 -0.0303,19.85607 -4.89477,29.3525 -25.57101,49.90924 -4.87807,4.84987 -4.37369,4.74593 -7.83314,1.61378 z m 29.09202,-12.56701 c 0,-0.20191 0.88569,-1.4681 1.96824,-2.8135 8.7365,-10.8578 12.61641,-25.95669 10.44082,-40.63088 -0.27321,-1.84226 -0.65435,-4.65587 -0.84716,-6.25249 l -0.35059,-2.90293 8.57192,-10.9074 c 4.71457,-5.99908 8.85554,-10.98568 9.2023,-11.08131 1.08285,-0.29869 4.55044,9.68887 6.7039,19.30908 l 1.1997,5.35925 0.0243,8.70882 0.0243,8.7088 -0.989,5.13598 -0.98901,5.13593 -3.6591,2.9518 c -3.28998,2.65408 -16.23912,10.94479 -26.14551,16.73977 -4.78509,2.7992 -5.15789,2.98271 -5.15789,2.53908 z M 72.2147,233.55161 C 63.493836,228.46665 51.4072,220.74834 48.121849,218.16635 l -2.77428,-2.18032 -0.850733,-3.14872 c -2.091903,-7.74269 -2.612883,-20.75691 -1.134322,-28.33698 1.635204,-8.38315 5.91793,-21.88835 6.937595,-21.87705 0.508291,0.004 15.858598,19.02585 17.495599,21.67837 l 0.566412,0.91782 -0.818622,5.33463 -0.818653,5.33469 0.277795,8.9321 c 0.393028,12.64052 2.558236,18.87442 10.094372,29.06292 3.236261,4.37531 3.185309,4.37181 -4.882254,-0.3322 z M -7.9303798,206.18847 c 1.1125517,-0.0573 -2.4646522,0.12698 0,0 z M 177.44611,199.61055 c -0.0243,-16.15324 -1.04503,-21.25193 -7.51348,-37.52555 l -3.14037,-7.9007 4.61492,-6.614 c 2.5382,-3.63762 5.97055,-8.62365 7.62755,-11.07998 3.83331,-5.68272 3.87959,-5.67632 8.09325,1.11651 6.01846,9.70232 10.51155,20.66145 11.92636,29.08975 l 0.5724,3.40996 -0.80316,3.18739 c -2.01185,7.98449 -17.3299,33.39164 -20.69058,34.31834 l -0.67464,0.18599 z M 30.267129,205.16589 C 22.138861,194.77143 14.635376,181.39893 12.565457,173.61845 l -0.934589,-3.51299 0.669176,-4.07933 c 1.486181,-9.05953 11.835096,-31.43305 15.787943,-34.13215 l 0.844847,-0.57689 1.602089,2.36329 c 0.881168,1.29983 4.304956,6.29882 7.608449,11.10886 7.080029,10.30885 6.73585,8.11754 2.791387,17.77318 -1.768214,4.32844 -3.840844,9.98011 -4.605798,12.55928 l -1.390834,4.68935 -0.530585,7.59228 c -0.291819,4.17577 -0.70863,10.28979 -0.926233,13.58666 -0.448069,6.78845 -0.806793,7.25449 -3.21418,4.1759 z m 66.588267,-2.3316 c -4.406539,-2.42707 -8.596028,-4.867 -9.310043,-5.42204 l -1.298141,-1.00922 v -2.95794 -2.95794 l 9.115546,-3.8866 c 10.995512,-4.6881 9.148622,-4.6691 19.628342,-0.20214 9.68715,4.12918 10.2467,4.5763 10.01026,7.99828 l -0.16495,2.38528 -9.42957,5.24761 c -11.2298,6.24944 -8.85327,6.1464 -18.551552,0.80463 z M 80.174831,183.0489 c -3.113096,-2.97047 -5.620532,-5.89292 -7.087839,-8.26113 l -0.89867,-1.4504 1.855914,-3.6856 c 1.020735,-2.02706 4.690999,-8.60937 8.156173,-14.6274 3.465129,-6.01798 6.904072,-12.1266 7.642067,-13.5747 l 1.341837,-2.6329 -0.714517,-0.40048 c -3.255802,-1.82491 -19.862453,-7.61828 -23.620692,-8.24027 l -1.677254,-0.27757 0.585654,1.28618 c 3.764342,8.26722 7.454904,11.52248 12.141699,10.70952 4.608701,-0.79942 4.513952,-0.88857 2.670602,2.51407 -6.075486,11.21469 -12.220215,21.46337 -12.984895,21.65713 -0.609317,0.15433 -19.431743,-22.97399 -21.0807,-25.90329 l -0.949928,-1.68749 1.007408,-1.43876 c 0.965298,-1.37865 10.776306,-12.2056 14.861098,-16.40002 1.076446,-1.10533 4.610011,-4.77312 7.852334,-8.15057 7.041415,-7.3349 4.158242,-7.26635 21.019919,-0.49982 16.969279,6.8097 13.876159,6.80939 30.597659,0.001 16.54937,-6.73611 14.04706,-6.6072 19.44366,-1.00181 20.41796,21.20772 25.00644,26.59926 24.38393,28.65166 -0.6845,2.25675 -20.15002,26.9978 -21.24106,26.9978 -0.19598,0 -2.76768,-4.17018 -5.71439,-9.26705 -2.94674,-5.09691 -6.24298,-10.77436 -7.32499,-12.61662 -2.37794,-4.04882 -2.51533,-3.89328 2.56455,-2.90339 5.08867,0.99163 10.08339,-3.4743 12.35832,-11.05005 l 0.36788,-1.22515 -2.08152,0.61015 c -3.94093,1.15526 -21.63511,7.45932 -22.63545,8.0646 l -1.00178,0.60617 1.45712,2.93606 c 0.8014,1.61483 5.13756,9.36796 9.63593,17.22915 l 8.1788,14.29305 -2.86548,3.76479 c -7.49335,9.84505 -7.31964,9.79986 -18.91405,4.92078 l -9.12884,-3.84132 v -3.44137 -3.44133 l 3.3732,-2.0511 c 1.85526,-1.12807 4.52681,-2.8922 5.93682,-3.92024 l 2.56362,-1.86911 v -1.7485 -1.74845 H 105.65984 91.070733 l -0.30219,0.65149 c -0.940079,2.0272 1.372191,4.2722 9.666547,9.38528 l 2.04444,1.26031 -0.15558,3.59381 -0.15556,3.59387 -8.635345,3.69274 c -10.375718,4.43693 -9.734603,4.39212 -13.358483,0.93435 z M 38.390852,127.22318 c -2.89369,-2.54102 -7.099177,-8.16908 -8.302381,-11.11078 l -1.16393,-2.84561 0.23175,-3.38138 c 0.407727,-5.95132 4.07586,-10.376999 10.920999,-13.176449 l 3.952633,-1.61649 5.40052,0.15503 5.400518,0.1552 5.13431,2.15261 c 2.823867,1.18391 5.526212,2.510949 6.005232,2.948969 l 0.870953,0.79635 -2.210554,2.73927 c -2.835665,3.51391 -2.453707,3.41924 -6.779213,1.68056 -7.926248,-3.18593 -12.794596,-2.40503 -16.888113,2.70893 l -1.671153,2.08774 0.01234,1.8215 c 0.01539,2.23396 1.370064,4.78554 4.265038,8.02827 2.738455,3.06744 2.735738,3.12673 -0.270781,5.97091 -2.915436,2.75784 -2.799163,2.73688 -4.907439,0.88555 z m 129.669288,-0.78645 c -2.88229,-2.54976 -2.89463,-2.31287 0.33834,-6.51665 4.32705,-5.62644 4.71223,-8.37256 1.67581,-11.94756 -3.72735,-4.38846 -12.34288,-5.20302 -17.75718,-1.67883 -1.99907,1.30121 -2.37877,1.20253 -4.60352,-1.19647 -3.67011,-3.95757 -3.50386,-4.2579 4.16498,-7.523259 l 4.78175,-2.03606 6.21625,0.15556 6.21626,0.15557 3.04481,1.2373 c 12.20756,4.960769 13.51113,16.002979 3.28032,27.786789 -3.77321,4.34596 -4.12751,4.42123 -7.35782,1.56349 z M 9.3267332,111.81531 9.6914341,106.5677 11.068204,104.17329 c 1.724033,-2.99836 2.264006,-6.763139 2.294288,-15.996153 l 0.0244,-7.225448 -0.84811,-0.701809 c -0.466485,-0.385998 -1.365092,-0.701807 -1.996947,-0.701807 -1.9799621,0 -0.497802,-0.631902 12.020128,-5.124644 13.29585,-4.771959 19.214389,-6.909761 33.462114,-12.08671 5.194718,-1.887546 12.359364,-4.403717 15.921461,-5.591502 l 6.476539,-2.159658 8.871429,-0.693603 c 13.815184,-1.080136 36.767184,-0.587497 44.222344,0.949187 2.87311,0.592193 30.85907,10.322981 55.658,19.352434 5.49159,1.999489 10.66355,3.844121 11.49339,4.099116 2.43338,0.747893 1.54923,1.274619 -6.39711,3.811119 -4.13874,1.321115 -9.76765,3.12061 -12.50868,3.998857 l -4.98366,1.596844 -2.43672,-2.242663 -2.43668,-2.242679 -8.23126,-3.00409 c -4.52718,-1.652247 -10.08866,-3.592188 -12.35875,-4.311015 l -4.12753,-1.30693 -9.36528,3.332088 c -5.15085,1.83265 -13.82588,4.957471 -19.27773,6.944028 -12.3626,4.504703 -8.60421,4.824213 -28.676831,-2.438076 -11.595018,-4.195096 -21.899217,-7.794755 -22.312765,-7.794755 -0.777949,0 -14.940048,4.709507 -18.948759,6.301277 -2.193749,0.871072 -5.174196,2.590833 -7.177396,4.141464 l -3.42577,2.65181 -7.762864,-2.572954 c -9.679884,-3.20836 -8.915972,-3.811122 -8.914595,7.033993 l 10e-4,9.017429 1.548266,2.45632 1.548268,2.45633 0.379703,4.85104 c 0.208881,2.66811 0.509085,5.13006 0.667163,5.47095 l 0.287551,0.61986 H 16.359678 8.962581 Z M 85.167776,100.83281 C 74.333068,96.363251 62.252116,91.504238 58.321222,90.034999 c -8.150404,-3.046315 -8.052916,-2.949789 -4.488769,-4.44431 11.251394,-4.717928 9.270092,-4.897027 30.106217,2.721592 9.136009,3.34051 17.77927,6.45504 19.20737,6.92114 l 2.5965,0.84745 3.88003,-1.39541 c 2.134,-0.76748 8.98028,-3.262015 15.21396,-5.543384 6.23364,-2.281349 13.4838,-4.884039 16.11136,-5.783744 l 4.77742,-1.635813 3.31826,1.110973 c 10.64461,3.563916 12.13641,4.418165 9.12507,5.225308 -2.96119,0.793683 -18.11046,6.7961 -36.22709,14.353869 -18.89441,7.8822 -13.24871,8.12474 -36.773774,-1.57986 z M 63.218722,54.280228 c -1.831184,-3.94881 34.468425,-7.775933 56.760418,-5.984333 14.20125,1.141375 26.71567,3.65498 26.71567,5.366035 0,1.08563 -1.01847,1.292687 -3.00134,0.610189 -4.63299,-1.594659 -21.78938,-3.671886 -33.38286,-4.041879 -13.296853,-0.424371 -34.364233,1.482354 -43.071194,3.898208 -3.719845,1.032118 -3.61431,1.028119 -4.020694,0.151688 z m 0.360615,-3.672205 c 0,-0.442133 -0.250046,-1.010638 -0.555285,-1.263356 -0.337559,-0.279326 -0.416446,-1.436924 -0.201249,-2.952236 l 0.354027,-2.492726 3.304591,-0.67427 c 22.381044,-4.566693 57.077779,-4.564853 77.110019,0.005 l 3.10334,0.70779 v 1.254609 c 0,0.690023 0.24302,1.378824 0.53972,1.530629 0.80629,0.412337 0.65124,1.823777 -0.26986,2.456313 -0.44525,0.305794 -0.80956,0.95482 -0.80956,1.442289 v 0.886305 l -0.94447,-0.309249 c -3.67732,-1.204008 -12.28591,-2.524731 -26.51924,-4.068541 -3.19444,-0.346497 -21.81738,-0.326255 -26.364683,0.02868 -9.163336,0.715165 -21.801854,2.501352 -25.651603,3.625301 -2.777178,0.810931 -3.095772,0.792847 -3.095772,-0.175449 z m -2.087602,-12.31587 c -0.615476,-1.361277 -1.287337,-3.035896 -1.493014,-3.721383 -0.205822,-0.685494 -1.427116,-3.620528 -2.714363,-6.522311 -2.945683,-6.640394 -2.936474,-6.708565 0.53769,-3.989635 1.58297,1.238828 4.193834,2.795454 5.801899,3.45916 4.192679,1.730441 6.3073,4.021717 3.243726,3.514692 l -1.569032,-0.259678 -0.904402,1.142186 c -2.308678,2.915627 3.205797,6.065663 7.451157,4.256343 4.243815,-1.808631 6.865935,-6.643262 3.603058,-6.643262 -1.568605,0 -1.724641,-0.687841 -0.5347,-2.356748 0.65591,-0.919902 1.25547,-2.851989 1.500453,-4.835291 l 0.40803,-3.303191 1.966636,2.515492 c 1.081662,1.383526 2.959406,3.175669 4.172766,3.982557 2.521068,1.676477 2.700304,2.090554 0.991803,2.291345 -1.70266,0.200204 -1.898091,1.953628 -0.367951,3.301428 3.977278,3.50327 12.404675,3.040406 15.057244,-0.827029 l 0.791727,-1.154363 -0.531821,-1.258577 -0.531832,-1.258554 -1.506921,-0.143854 c -0.82878,-0.07917 -1.856521,0.0963 -2.283811,0.389646 l -0.776912,0.533565 v -0.977269 c 0,-1.330378 0.771464,-2.430409 4.092603,-5.835492 1.559587,-1.598996 3.663552,-4.119389 4.675502,-5.600887 l 1.83995,-2.693636 -1.25621,-0.784076 c -2.26351,-1.412833 -1.32776,-4.7674117 1.32643,-4.7550397 1.7683,0.0074 2.45552,0.35282 3.27587,1.642422 l 0.62298,0.97935 -0.62409,1.1334337 c -0.34325,0.623422 -1.0783,1.252745 -1.63343,1.398548 l -1.00939,0.265118 1.3779,2.088156 c 0.75787,1.148505 3.18804,3.997401 5.40043,6.330924 2.82136,2.975834 4.02506,4.619014 4.03106,5.502821 l 0.007,1.260046 -0.84811,-0.701786 c -1.50223,-1.243091 -4.54896,-0.05318 -4.54896,1.776681 0,5.041694 10.85313,6.884066 15.65212,2.65703 l 1.21091,-1.066635 -0.34613,-1.141226 c -0.19029,-0.627685 -0.70581,-1.14125 -1.14543,-1.14125 -1.33574,0 -0.90269,-0.789098 1.15378,-2.102346 1.07424,-0.685958 2.87527,-2.433499 4.0024,-3.88346 l 2.04931,-2.636249 0.33057,2.189653 c 0.28908,1.915228 1.40944,5.469639 2.28313,7.243478 0.16976,0.34512 -0.18209,0.689778 -0.85271,0.83492 -2.61743,0.566397 -1.63464,4.058174 1.69494,6.022044 2.14791,1.266861 5.50714,1.377059 7.58786,0.248915 l 1.46044,-0.791862 v -1.537099 c 0,-1.736344 -1.44714,-2.708856 -3.30491,-2.220923 l -1.10541,0.290309 0.63327,-0.97913 c 0.34829,-0.53849 2.11615,-1.713117 3.92864,-2.610231 1.81242,-0.897132 4.74332,-2.736496 6.51305,-4.087482 2.09688,-1.600687 3.10671,-2.145179 2.89904,-1.563096 -0.17534,0.491267 -2.0171,4.812157 -4.09295,9.602017 l -3.77424,8.708798 -1.25302,-0.049 c -0.68918,-0.02696 -4.89605,-0.670862 -9.34867,-1.430896 -13.45876,-2.297279 -16.64384,-2.541049 -32.92238,-2.519682 l -15.1119,0.01962 -6.930646,0.990081 c -6.236657,0.890938 -13.848453,2.174733 -17.705582,2.9862 l -1.428735,0.300571 z"
       id="path1"
       sodipodi:nodetypes="sscscscscscccsscccssssscsscsscssccscccccsccsssscccssscccssscssccscccsccccscssscsscsscscccccscssscccccssccsscsscsccccsssccsscccsscsscssscsscsssscssscccccssccscccscssscsscssscscssssccsssssscssccscsccccssccccccscccscccsccsccccccscsccsccccssssscccssccccscccsscccssscsscccscccssssscsccccccccccscssscssscsscscsssssccccccsccscsscsscccccccccscscssscscccsccccccssccscscssccsccsssccsssccccsscsscscscscscccsscc" />
  </g>
</svg>
